<svg width="339" height="147" viewBox="0 0 339 147" fill="none" xmlns="http://www.w3.org/2000/svg">
<mask id="mask0_25_305" style="mask-type:alpha" maskUnits="userSpaceOnUse" x="0" y="0" width="339" height="147">
<rect width="339" height="147" rx="2" fill="#6418C3"/>
</mask>
<g mask="url(#mask0_25_305)">
<path d="M52.9165 87.9171C51.4653 82.519 45.9159 79.3163 40.5165 80.7567L11.1758 88.6185L16.4169 108.179L45.7576 100.317C51.1542 98.8659 54.3584 93.3161 52.9165 87.9171Z" fill="#F79A10"/>
<path d="M25.1517 140.779L54.4925 132.917C59.8932 131.47 63.0985 125.918 61.6514 120.517C60.2039 115.115 54.6521 111.91 49.2514 113.357L19.9106 121.219L25.1517 140.779Z" fill="#F79A10"/>
<path d="M10.24 32.9644C-32.9707 44.5426 -58.6139 88.9581 -47.0357 132.169C-35.4574 175.379 8.95803 201.023 52.1687 189.444C95.3793 177.866 121.023 133.451 109.444 90.24C97.8221 47.0631 53.4434 21.4411 10.24 32.9644ZM74.8174 117.487C78.1088 129.832 70.7887 142.511 58.4531 145.831L59.9506 151.42C60.7778 154.507 58.9445 157.68 55.8592 158.506C52.7723 159.333 49.5999 157.502 48.7728 154.415L47.2752 148.826L36.099 151.821L37.5966 157.41C38.4237 160.496 36.5905 163.669 33.5052 164.496C30.4182 165.323 27.2459 163.492 26.4187 160.405L24.9212 154.816L8.15607 159.308C5.06911 160.135 1.89673 158.303 1.07004 155.218C0.242888 152.131 2.07446 148.959 5.16142 148.132L10.7487 146.635L-4.22594 90.7487L-9.81317 92.2458C-12.9001 93.0729 -16.0725 91.2414 -16.8997 88.1544C-17.7268 85.0674 -15.8952 81.8951 -12.8083 81.0679L3.95683 76.5757L2.45973 70.9885C1.63259 67.9015 3.46416 64.7291 6.55112 63.902C9.63808 63.0748 12.8105 64.9064 13.6376 67.9934L15.1347 73.5806L26.3109 70.586L24.8138 64.9987C23.9866 61.9118 25.8182 58.7394 28.9052 57.9122C31.9921 57.0851 35.1645 58.9167 35.9916 62.0036L37.4887 67.5909C49.7683 64.2457 62.435 71.4867 65.7818 83.7658C67.5534 90.2684 66.391 97.2208 62.5993 102.792C68.6098 105.686 73.0682 111.048 74.8174 117.487Z" fill="#F79A10"/>
</g>
</svg>
