<svg width="339" height="147" viewBox="0 0 339 147" fill="none" xmlns="http://www.w3.org/2000/svg">
<mask id="mask0_25_387" style="mask-type:alpha" maskUnits="userSpaceOnUse" x="0" y="0" width="339" height="147">
<rect width="339" height="147" rx="2" fill="#6418C3"/>
</mask>
<g mask="url(#mask0_25_387)">
<path d="M36.7514 122.551C35.3018 123.507 33.5288 123.982 31.7952 123.879L13.1875 122.761L41.4826 150.12L52.3075 112.279L36.7514 122.551Z" fill="#CB2EBB"/>
<path d="M31.0002 111L48.4638 97.9357L20.518 71.8804L9.34384 108.418L31.0002 111Z" fill="#CB2EBB"/>
<path d="M10.0359 32.76C-33.1748 44.3383 -58.818 88.7537 -47.2398 131.964C-35.6615 175.175 8.75393 200.818 51.9646 189.24C95.1752 177.662 120.818 133.246 109.24 90.0357C97.6197 46.8583 53.2389 21.235 10.0359 32.76ZM63.1144 99.0846L50.1461 162.458C49.5062 165.589 46.4478 167.607 43.3186 166.967C42.0907 166.717 40.9792 166.075 40.1484 165.137L-2.76918 116.738C-4.10433 115.228 -4.55973 113.132 -3.97243 111.204L11.9911 59.0083C13.1473 55.8944 16.6061 54.306 19.72 55.4622C20.3553 55.6978 20.9452 56.0369 21.4668 56.4693L61.3876 93.6906C62.8622 95.0667 63.5155 97.109 63.1144 99.0846Z" fill="#CB2EBB"/>
</g>
</svg>
