<svg width="339" height="147" viewBox="0 0 339 147" fill="none" xmlns="http://www.w3.org/2000/svg">
<mask id="mask0_25_419" style="mask-type:alpha" maskUnits="userSpaceOnUse" x="0" y="0" width="339" height="147">
<rect width="339" height="147" rx="2" fill="#6418C3"/>
</mask>
<g mask="url(#mask0_25_419)">
<path d="M9.51755 30.8281C-34.76 42.6923 -61.0365 88.2044 -49.1723 132.482C-37.3082 176.76 8.20393 203.036 52.4815 191.172C96.7591 179.308 123.036 133.796 111.171 89.518C99.2622 45.275 53.7877 19.0203 9.51755 30.8281ZM70.3737 143.415L24.5617 155.69C21.3985 156.537 18.1478 154.661 17.3002 151.497C17.2277 151.227 17.1743 150.951 17.1406 150.671L13.3655 119.344L5.24412 123.854C4.82065 124.091 4.36949 124.274 3.90113 124.399C0.737007 125.243 -2.51067 123.364 -3.35649 120.2C-4.05635 117.574 -2.88278 114.81 -0.507893 113.488L11.8338 106.637L7.1103 67.429C6.71854 64.1774 9.03705 61.226 12.2887 60.8342C15.5403 60.4425 18.4916 62.761 18.8834 66.0126L23.0277 100.423L42.2338 89.7609C45.088 88.1588 48.6999 89.1746 50.3002 92.0293C51.9023 94.8836 50.8865 98.4955 48.0322 100.098C48.0157 100.106 47.9996 100.116 47.9831 100.124L24.5554 113.129L28.0916 142.468L67.3046 131.961C70.4678 131.113 73.7185 132.99 74.5661 136.153C75.4132 139.315 73.5369 142.567 70.3737 143.415Z" fill="#434343"/>
</g>
</svg>
