<svg width="339" height="147" viewBox="0 0 339 147" fill="none" xmlns="http://www.w3.org/2000/svg">
<mask id="mask0_25_403" style="mask-type:alpha" maskUnits="userSpaceOnUse" x="0" y="0" width="339" height="147">
<rect width="339" height="147" rx="2" fill="#6418C3"/>
</mask>
<g mask="url(#mask0_25_403)">
<path d="M17.5531 29.6919C-24.5905 40.9842 -49.6006 84.3029 -38.3082 126.447C-27.0159 168.59 16.3028 193.6 58.4464 182.308C100.59 171.015 125.6 127.697 114.308 85.5532C102.972 43.4425 59.6897 18.4531 17.5531 29.6919ZM73.192 87.5741C71.0259 90.8412 68.2741 93.6787 65.0739 95.941C62.7785 97.4278 60.8456 99.4095 59.417 101.743C58.4965 108.481 61.9353 115.067 67.9938 118.162C68.2047 118.284 68.4087 118.42 68.6038 118.569C76.849 124.789 79.2235 136.146 74.1622 145.149C68.5073 154.924 56.0036 158.274 46.2172 152.636C39.7607 148.082 36.0383 140.577 36.3186 132.681C35.7294 128.319 33.1533 124.474 29.3418 122.272C25.5891 120.197 21.0925 119.956 17.1391 121.616C10.4399 125.804 2.0797 126.327 -5.0899 123.01C-14.8713 117.371 -18.2279 104.871 -12.5886 95.0912C-12.5854 95.0832 -12.58 95.0764 -12.5764 95.0701C-7.31517 86.1814 3.7123 82.5581 13.2211 86.5941C20.1827 90.5586 28.8274 90.2051 32.3792 86.1282C33.6935 83.7275 34.4444 81.0607 34.5784 78.3274C34.9385 74.4282 36.0175 70.6305 37.7614 67.1253C43.4103 57.3412 55.9189 53.9895 65.7026 59.6367C75.4883 65.2851 78.84 77.7937 73.1928 87.5774L73.192 87.5741Z" fill="#1F7FB6"/>
<path d="M47.1907 72.1733C46.2388 74.4258 45.6487 76.8145 45.4455 79.251C45.1634 84.0226 43.5122 88.6131 40.6925 92.4727C32.012 100.634 18.9108 101.888 8.8395 95.5216C4.77373 94.1334 0.287546 95.767 -1.93348 99.4453C-4.40657 103.722 -2.94348 109.195 1.33297 111.668C1.33665 111.669 1.33914 111.672 1.34282 111.673C3.92179 113.155 6.9072 112.699 12.795 109.907C13.989 109.344 15.2308 108.887 16.5067 108.546C22.7365 106.984 29.3266 107.846 34.946 110.954C41.8064 114.915 46.3701 121.908 47.2311 129.784C47.7337 136.27 48.8346 139.093 51.4186 140.587C55.7003 143.054 61.1709 141.588 63.6457 137.311C65.7288 133.411 64.7446 128.582 61.2996 125.809C50.961 120.198 45.6618 108.356 48.3672 96.908C50.3002 92.5378 53.4508 88.8157 57.4433 86.1904C59.454 84.7921 61.2275 83.0798 62.698 81.1199C65.1682 76.8389 63.7014 71.3649 59.4205 68.8946C55.138 66.4248 49.6662 67.8927 47.196 72.1736L47.1907 72.1733Z" fill="#1F7FB6"/>
</g>
</svg>
