<svg width="298" height="28" viewBox="0 0 298 28" fill="none" xmlns="http://www.w3.org/2000/svg">
<path d="M2 24.3941L2.80887 23.6153C3.68995 22.767 6.41494 22.6559 7.65901 23.4175L10.0301 24.8692C10.4659 25.136 11.4374 25.0617 11.6272 24.747C11.8121 24.4405 12.746 24.3592 13.1992 24.6102L15.0066 25.6111C16.1866 26.2645 18.6166 26.0585 19.1171 25.2626L22.7743 19.4458C22.8874 19.266 23.5045 19.2901 23.5386 19.4757C23.5723 19.6589 24.1782 19.6859 24.3003 19.5095L30.3777 10.7292C31.0198 9.80148 34.0563 9.74128 34.8987 10.6396L36.9521 12.8295C37.2083 13.1027 38.1415 13.0697 38.288 12.7822C38.4389 12.4864 39.4107 12.4635 39.6373 12.7505L41.5292 15.1462C42.0882 15.8541 44.2146 16.0569 45.4311 15.5183L49.0473 13.9173C49.9805 13.5041 51.6235 13.7391 51.7798 14.3081C51.984 15.0514 54.4537 15.1262 54.9036 14.4027L60.7447 5.00874C60.9506 4.67756 62.0809 4.71165 62.1749 5.05186C62.2747 5.41338 63.5041 5.41905 63.6224 5.05854L64.4457 2.54806C64.6782 1.8394 67.0596 1.80872 67.3925 2.51009L72.7605 13.8193C72.9337 14.1842 74.1669 14.1758 74.3125 13.8087C74.4466 13.4705 75.5465 13.4255 75.8298 13.7466L78.8594 17.1803C79.9761 18.446 84.3111 18.2688 84.8403 16.9358L85.0392 16.4349V16.4349C86.8561 11.858 94.3271 17.9628 99.2475 18.1592C101.292 18.2408 103.594 18.0377 106 17.3261L106.809 17.0769C107.69 16.8054 110.415 16.7699 111.659 17.0136L114.03 17.4781C114.466 17.5635 115.437 17.5397 115.627 17.439C115.812 17.341 116.746 17.3149 117.199 17.3953L119.007 17.7155C120.187 17.9246 122.617 17.8587 123.117 17.604L126.774 15.7427C126.887 15.6851 127.504 15.6928 127.539 15.7522C127.572 15.8109 128.178 15.8195 128.3 15.7631L134.378 12.9534C135.02 12.6565 138.056 12.6372 138.899 12.9247L140.952 13.6254C141.208 13.7129 142.141 13.7023 142.288 13.6103C142.439 13.5156 143.411 13.5083 143.637 13.6002L145.529 14.3668C146.088 14.5933 148.215 14.6582 149.431 14.4859L153.047 13.9735C153.981 13.8413 155.623 13.9165 155.78 14.0986C155.984 14.3365 158.454 14.3604 158.904 14.1289L164.745 11.1228C164.951 11.0168 166.081 11.0277 166.175 11.1366C166.275 11.2523 167.504 11.2541 167.622 11.1387L168.446 10.3354C168.678 10.1086 171.06 10.0988 171.393 10.3232L176.76 13.9422C176.934 14.0589 178.167 14.0562 178.312 13.9388C178.447 13.8306 179.547 13.8162 179.83 13.9189L182.859 15.0177C183.976 15.4227 188.311 15.366 188.84 14.9395L189.039 14.7792C189.541 14.3748 193.01 14.2848 194.845 14.5104C195.571 14.5996 196.157 15.0431 196.659 15.5744L204.228 23.5783C204.653 24.0276 205.363 24.0442 205.809 23.6153V23.6153C206.69 22.767 209.415 22.6559 210.659 23.4175L213.03 24.8692C213.466 25.136 214.437 25.0617 214.627 24.747C214.812 24.4405 215.746 24.3592 216.199 24.6102L218.007 25.6111C219.187 26.2645 221.617 26.0585 222.117 25.2626L225.774 19.4458C225.887 19.266 226.504 19.2901 226.539 19.4757C226.572 19.6589 227.178 19.6859 227.3 19.5095L233.378 10.7292C234.02 9.80148 237.056 9.74128 237.899 10.6396L239.952 12.8295C240.208 13.1027 241.141 13.0697 241.288 12.7822C241.439 12.4864 242.411 12.4635 242.637 12.7505L244.529 15.1462C245.088 15.8541 247.215 16.0569 248.431 15.5183L252.047 13.9173C252.981 13.5041 254.623 13.7391 254.78 14.3081C254.984 15.0514 257.454 15.1262 257.904 14.4027L263.745 5.00874C263.951 4.67756 265.081 4.71165 265.175 5.05186C265.275 5.41338 266.504 5.41905 266.622 5.05854L267.446 2.54806C267.678 1.8394 270.06 1.80872 270.393 2.51009L275.76 13.8193C275.934 14.1842 277.167 14.1758 277.312 13.8087C277.447 13.4705 278.547 13.4255 278.83 13.7466L281.859 17.1803C282.976 18.446 287.311 18.2688 287.84 16.9358L288.039 16.4349C288.682 14.8155 294.197 14.8098 294.904 16.4243C295.548 17.8953 296 18.8437 296 18.6124" stroke="#FFAB2D" stroke-width="4"/>
</svg>
