<svg width="298" height="41" viewBox="0 0 298 41" fill="none" xmlns="http://www.w3.org/2000/svg">
<path d="M2 36.5242L2.80887 35.3235C3.68995 34.0157 6.41494 33.8444 7.65901 35.0187L10.0301 37.2567C10.4659 37.6681 11.4374 37.5535 11.6272 37.0683C11.8121 36.5958 12.746 36.4705 13.1992 36.8574L15.0066 38.4004C16.1866 39.4078 18.6166 39.0902 19.1171 37.8631L22.7743 28.8956C22.8874 28.6184 23.5045 28.6556 23.5386 28.9417C23.5723 29.2242 24.1782 29.2657 24.3003 28.9939L30.3777 15.4576C31.0198 14.0273 34.0563 13.9345 34.8987 15.3194L36.9521 18.6954C37.2083 19.1166 38.1415 19.0657 38.288 18.6226C38.4389 18.1665 39.4107 18.1313 39.6373 18.5737L41.5292 22.2671C42.0882 23.3584 44.2146 23.6711 45.4311 22.8408L49.0473 20.3724C49.9805 19.7355 51.6235 20.0978 51.7798 20.975C51.984 22.121 54.4537 22.2363 54.9036 21.1209L60.7447 6.63847C60.9506 6.12791 62.0809 6.18046 62.1749 6.70496C62.2747 7.26229 63.5041 7.27103 63.6224 6.71524L64.4457 2.84493C64.6782 1.75241 67.0596 1.7051 67.3925 2.78639L72.7605 20.2214C72.9337 20.7839 74.1669 20.771 74.3125 20.205C74.4466 19.6837 75.5465 19.6143 75.8298 20.1093L78.8594 25.403C79.9761 27.3543 84.3111 27.081 84.8403 25.0261L85.0392 24.2538V24.2538C86.3979 18.9772 94.2346 26.7679 99.6808 26.9319C101.615 26.9902 103.762 26.648 106 25.6277L106.809 25.2435C107.69 24.825 110.415 24.7702 111.659 25.146L114.03 25.8621C114.466 25.9938 115.437 25.9571 115.627 25.8019C115.812 25.6507 116.746 25.6105 117.199 25.7344L119.007 26.2281C120.187 26.5505 122.617 26.4489 123.117 26.0562L126.774 23.1866C126.887 23.0979 127.504 23.1098 127.539 23.2013C127.572 23.2917 128.178 23.305 128.3 23.218L134.378 18.8864C135.02 18.4287 138.056 18.399 138.899 18.8422L140.952 19.9225C141.208 20.0573 142.141 20.041 142.288 19.8992C142.439 19.7533 143.411 19.742 143.637 19.8836L145.529 21.0655C146.088 21.4147 148.215 21.5147 149.431 21.249L153.047 20.4592C153.981 20.2553 155.623 20.3713 155.78 20.652C155.984 21.0187 158.454 21.0556 158.904 20.6987L164.745 16.0643C164.951 15.9009 166.081 15.9177 166.175 16.0856C166.275 16.2639 167.504 16.2667 167.622 16.0889L168.446 14.8504C168.678 14.5008 171.06 14.4856 171.393 14.8316L176.76 20.4108C176.934 20.5909 178.167 20.5867 178.312 20.4056C178.447 20.2388 179.547 20.2166 179.83 20.375L182.859 22.069C183.976 22.6934 188.311 22.6059 188.84 21.9483L189.039 21.7012C189.561 21.0527 193.293 20.9288 195.058 21.3311C195.663 21.4691 196.067 21.962 196.391 22.491L204.243 35.2902C204.597 35.8678 205.43 35.8855 205.809 35.3235V35.3235C206.69 34.0157 209.415 33.8444 210.659 35.0187L213.03 37.2567C213.466 37.6681 214.437 37.5535 214.627 37.0683C214.812 36.5958 215.746 36.4705 216.199 36.8574L218.007 38.4004C219.187 39.4078 221.617 39.0902 222.117 37.8631L225.774 28.8956C225.887 28.6184 226.504 28.6556 226.539 28.9417C226.572 29.2242 227.178 29.2657 227.3 28.9939L233.378 15.4576C234.02 14.0273 237.056 13.9345 237.899 15.3194L239.952 18.6954C240.208 19.1166 241.141 19.0657 241.288 18.6226C241.439 18.1665 242.411 18.1313 242.637 18.5737L244.529 22.2671C245.088 23.3584 247.215 23.6711 248.431 22.8408L252.047 20.3724C252.981 19.7355 254.623 20.0978 254.78 20.975C254.984 22.121 257.454 22.2363 257.904 21.1209L263.745 6.63847C263.951 6.12791 265.081 6.18046 265.175 6.70496C265.275 7.26229 266.504 7.27103 266.622 6.71524L267.446 2.84493C267.678 1.75241 270.06 1.7051 270.393 2.78639L275.76 20.2214C275.934 20.7839 277.167 20.771 277.312 20.205C277.447 19.6837 278.547 19.6143 278.83 20.1093L281.859 25.403C282.976 27.3543 287.311 27.081 287.84 25.0261L288.039 24.2538C288.682 21.7572 294.197 21.7484 294.904 24.2375C295.548 26.5052 296 27.9673 296 27.6108" stroke="#FFAB2D" stroke-width="4"/>
</svg>
