<svg width="298" height="54" viewBox="0 0 298 54" fill="none" xmlns="http://www.w3.org/2000/svg">
<path d="M2 5.34572L2.80887 6.9682C3.68995 8.73551 6.41494 8.96697 7.65901 7.38017L10.0301 4.35584C10.4659 3.79993 11.4374 3.95477 11.6272 4.6104C11.8121 5.24893 12.746 5.4183 13.1992 4.89547L15.0066 2.81028C16.1866 1.44889 18.6166 1.87813 19.1171 3.53634L22.7743 15.6546C22.8874 16.0292 23.5045 15.979 23.5386 15.5923C23.5723 15.2105 24.1782 15.1544 24.3003 15.5218L30.3777 33.8141C31.0198 35.7469 34.0563 35.8723 34.8987 34.0008L36.9521 29.4386C37.2083 28.8695 38.1415 28.9382 38.288 29.537C38.4389 30.1534 39.4107 30.201 39.6373 29.6031L41.5292 24.612C42.0882 23.1372 44.2146 22.7147 45.4311 23.8368L49.0473 27.1724C49.9805 28.0332 51.6235 27.5436 51.7798 26.3581C51.984 24.8095 54.4537 24.6537 54.9036 26.161L60.7447 45.7318C60.9506 46.4217 62.0809 46.3507 62.1749 45.642C62.2747 44.8888 63.5041 44.877 63.6224 45.6281L64.4457 50.8582C64.6782 52.3346 67.0596 52.3985 67.3925 50.9373L72.7605 27.3765C72.9337 26.6163 74.1669 26.6338 74.3125 27.3986C74.4466 28.1032 75.5465 28.1969 75.8298 27.5279L78.8594 20.3743C79.9761 17.7375 84.3111 18.1067 84.8403 20.8837L85.0392 21.9273C85.1401 22.4573 85.3613 22.9043 85.6652 23.2683C88.9246 27.1723 93.6105 19.1192 98.6456 18.4028C100.835 18.0914 103.355 18.4406 106 20.0706L106.809 20.5898C107.69 21.1554 110.415 21.2294 111.659 20.7217L114.03 19.7539C114.466 19.576 115.437 19.6255 115.627 19.8353C115.812 20.0397 116.746 20.0939 117.199 19.9266L119.007 19.2593C120.187 18.8236 122.617 18.961 123.117 19.4916L126.774 23.3695C126.887 23.4894 127.504 23.4733 127.539 23.3495C127.572 23.2274 128.178 23.2094 128.3 23.327L134.378 29.1805C135.02 29.799 138.056 29.8391 138.899 29.2403L140.952 27.7804C141.208 27.5982 142.141 27.6202 142.288 27.8118C142.439 28.0091 143.411 28.0243 143.637 27.833L145.529 26.2359C146.088 25.7639 148.215 25.6287 149.431 25.9878L153.047 27.0552C153.981 27.3306 155.623 27.1739 155.78 26.7946C155.984 26.299 158.454 26.2492 158.904 26.7315L164.745 32.9942C164.951 33.215 166.081 33.1922 166.175 32.9654C166.275 32.7244 167.504 32.7206 167.622 32.961L168.446 34.6346C168.678 35.1071 171.06 35.1275 171.393 34.6599L176.76 27.1205C176.934 26.8772 178.167 26.8828 178.312 27.1275C178.447 27.353 179.547 27.383 179.83 27.1689L182.859 24.8798C183.976 24.036 188.311 24.1541 188.84 25.0428L189.039 25.3767C189.582 26.2877 193.593 26.4327 195.258 25.809C195.747 25.6257 196.012 25.1449 196.228 24.6692L204.251 6.99652C204.551 6.33484 205.485 6.31787 205.809 6.9682V6.9682C206.69 8.73551 209.415 8.96697 210.659 7.38017L213.03 4.35584C213.466 3.79993 214.437 3.95477 214.627 4.6104C214.812 5.24893 215.746 5.4183 216.199 4.89547L218.007 2.81028C219.187 1.44889 221.617 1.87813 222.117 3.53634L225.774 15.6546C225.887 16.0292 226.504 15.979 226.539 15.5923C226.572 15.2105 227.178 15.1544 227.3 15.5218L233.378 33.8141C234.02 35.7469 237.056 35.8723 237.899 34.0008L239.952 29.4386C240.208 28.8695 241.141 28.9382 241.288 29.537C241.439 30.1534 242.411 30.201 242.637 29.6031L244.529 24.612C245.088 23.1372 247.215 22.7147 248.431 23.8368L252.047 27.1724C252.981 28.0332 254.623 27.5436 254.78 26.3581C254.984 24.8095 257.454 24.6537 257.904 26.161L263.745 45.7318C263.951 46.4217 265.081 46.3507 265.175 45.642C265.275 44.8888 266.504 44.877 266.622 45.6281L267.446 50.8582C267.678 52.3346 270.06 52.3985 270.393 50.9373L275.76 27.3765C275.934 26.6163 277.167 26.6338 277.312 27.3986C277.447 28.1032 278.547 28.1969 278.83 27.5279L281.859 20.3743C282.976 17.7375 287.311 18.1067 287.84 20.8837L288.039 21.9273C288.682 25.301 294.197 25.313 294.904 21.9494C295.548 18.8848 296 16.909 296 17.3908" stroke="#FFAB2D" stroke-width="4"/>
</svg>
