<svg width="282" height="37" viewBox="0 0 282 37" fill="none" xmlns="http://www.w3.org/2000/svg">
<path d="M281 4.20817L278.52 5.27901C275.819 6.44544 267.464 6.5982 263.65 5.55091L256.38 3.55485C255.044 3.18795 252.065 3.29015 251.484 3.72286C250.917 4.14429 248.053 4.25608 246.664 3.91101L241.123 2.53479C237.505 1.63627 230.055 1.91956 228.52 3.01398L217.307 11.012C216.961 11.2593 215.069 11.2261 214.964 10.9709C214.861 10.719 213.003 10.6819 212.629 10.9244L193.996 22.9973C192.027 24.273 182.717 24.3557 180.135 23.1206L173.839 20.1095C173.054 19.7338 170.193 19.7792 169.743 20.1744C169.281 20.5812 166.301 20.6126 165.606 20.218L159.806 16.9239C158.092 15.9506 151.573 15.6717 147.843 16.4123L136.756 18.6138C133.895 19.1819 128.858 18.8588 128.378 18.0764C127.753 17.0543 120.18 16.9514 118.801 17.9463L100.893 30.863C100.261 31.3184 96.7959 31.2715 96.5078 30.8037C96.2017 30.3066 92.4325 30.2988 92.0699 30.7945L89.5455 34.2464C88.8328 35.2208 81.5315 35.263 80.5108 34.2986L64.0531 18.7485C63.522 18.2468 59.741 18.2583 59.2947 18.7631C58.8835 19.2281 55.5113 19.29 54.6426 18.8484L45.3543 14.127C41.9306 12.3867 28.6395 12.6304 27.0171 14.4632L26.4074 15.152C24.4364 17.3787 7.52867 17.3866 5.36096 15.1666C3.38598 13.144 2.00001 11.8399 2.00001 12.1579" stroke="#FFAB2D" stroke-width="4"/>
</svg>
