<svg width="357" height="65" viewBox="0 0 357 65" fill="none" xmlns="http://www.w3.org/2000/svg">
<path d="M355.357 23.2282L353.125 20.9317C352.002 19.7772 348.712 18.886 344.545 18.6078C338.487 18.2034 332.355 19.1937 330.59 20.8615L316.913 33.7813C313.99 36.8213 308.145 43.2921 308.145 44.8555C308.145 45.4548 306.361 42.9971 303.819 39.1852C301.028 35.0012 279.264 35.0161 276.727 39.2126L275.942 40.5107C273.853 43.965 256.744 44.4243 252.337 41.1444L240.38 32.2461C239.262 31.4139 234.921 31.5305 234.392 32.407C233.818 33.3582 228.95 33.38 228.267 32.4344L207.081 3.12735C205.768 1.30978 196.369 1.3893 195.452 3.22575L192.202 9.73149C191.735 10.6657 186.883 10.651 186.489 9.7142C186.118 8.83255 181.657 8.74422 180.845 9.60244L157.792 33.9464C156.016 35.8213 146.269 35.6275 145.463 33.7011C144.847 32.2266 138.362 31.6176 134.679 32.6883L120.407 36.8374C115.606 38.2331 107.214 37.7076 105.008 35.8731L97.5413 29.6648C96.6469 28.9211 92.8115 28.9803 92.2161 29.747C91.6377 30.4918 87.9548 30.5774 86.9438 29.8694L78.8396 24.1945C75.5152 21.8665 63.5311 22.0225 60.9967 24.4267L37.0114 47.1804C36.5297 47.6373 34.1382 47.5676 34.0053 47.0927C33.8707 46.6117 31.4351 46.5492 30.9888 47.0153L16.5551 62.089C14.58 64.1516 4.98952 64.6855 0.332397 62.9921" stroke="#FFAB2D" stroke-width="2"/>
</svg>
