<svg width="334" height="74" viewBox="0 0 334 74" fill="none" xmlns="http://www.w3.org/2000/svg">
<path d="M-1.05835 54.5108L-0.273529 53.2127C2.26361 49.0161 24.0283 49.0012 26.8187 53.1852C29.361 56.9971 31.1451 59.4549 31.1451 58.8555C31.1451 57.2921 36.9904 50.8213 39.913 47.7813L53.5896 34.8615C55.3551 33.1937 61.4869 32.2034 67.5448 32.6078C71.7117 32.886 75.0021 33.7772 76.1245 34.9317C77.5555 36.4035 79.5072 37.2544 81.5594 37.3012L93.4931 37.5735C97.3139 37.6607 100.815 39.7266 102.739 43.0291C103.333 44.0488 105.798 44.9069 109.235 45.2898C115.44 45.9812 122.354 44.9067 123.519 43.0698L138.087 20.0995C141.01 15.0254 146.855 4.22482 146.855 1.61528C146.855 0.621195 148.617 4.6658 151.133 10.9601C152.931 15.4568 176.674 15.4486 178.305 10.9469L179.299 8.20256C180.652 4.46641 199.714 4.14587 202.663 7.80966L214.501 22.5149C215.271 23.4715 220.248 23.3878 220.601 22.4123C220.972 21.3859 226.31 21.3712 226.754 22.3954L247.875 71.1653C248.724 73.1234 258.959 73.0706 259.547 71.105L262.789 60.2732C263.084 59.2868 268.265 59.2963 268.514 60.2837C268.754 61.2352 273.68 61.295 274.214 60.3529L296.885 20.3938C298.079 18.2892 309.083 18.4233 309.616 20.5489C310.058 22.3125 318.413 22.8493 321.571 21.317L333.18 15.6837" stroke="#DC3CCC" stroke-width="2"/>
</svg>
