<svg width="339" height="77" viewBox="0 0 339 77" fill="none" xmlns="http://www.w3.org/2000/svg">
<path d="M-3.87549 39.0683V39.0683C-2.44454 37.5966 -0.492808 36.7456 1.5594 36.6988L13.493 36.4265C17.3139 36.3393 20.8151 34.2734 22.7387 30.971V30.971C23.3327 29.9512 25.7985 29.0931 29.235 28.7102C35.4401 28.0188 42.3538 29.0934 43.5188 30.9302L58.087 53.9005C61.0096 58.9746 66.8548 69.7752 66.8548 72.3848C66.8548 73.3788 68.6165 69.3342 71.1334 63.0399C72.9314 58.5432 96.6743 58.5514 98.3049 63.0532L99.299 65.7975C100.652 69.5336 119.714 69.8542 122.663 66.1904L134.501 51.4851C135.271 50.5285 140.248 50.6123 140.601 51.5878C140.972 52.6142 146.31 52.6288 146.754 51.6047L167.875 2.83478C168.724 0.876617 178.959 0.929452 179.547 2.89503L182.789 13.7268C183.084 14.7132 188.265 14.7038 188.514 13.7163C188.754 12.7648 193.68 12.705 194.214 13.6472L216.885 53.6063C218.079 55.7108 229.083 55.5767 229.616 53.4511C230.058 51.6875 238.413 51.1508 241.571 52.6831L253.18 58.3164C257.339 60.334 268.23 59.8376 269.874 57.5555L277.393 47.1203C278.003 46.2736 282.388 46.3161 282.786 47.1725C283.178 48.0135 287.453 48.0764 288.158 47.2516L296.143 37.919C298.426 35.2509 312.159 35.3659 313.865 38.0673L337.933 76.1767C338.252 76.6832 340.908 76.6357 340.994 76.1221C341.081 75.6043 343.766 75.5622 344.06 76.074" stroke="#2B98D6" stroke-width="2"/>
</svg>
