<svg width="339" height="74" viewBox="0 0 339 74" fill="none" xmlns="http://www.w3.org/2000/svg">
<path d="M-13.1553 50.3976C-12.3426 51.2558 -7.88155 51.1674 -7.51071 50.2858C-7.11667 49.3489 -2.26471 49.3343 -1.79805 50.2685L1.45161 56.7742C2.36894 58.6107 11.7677 58.6902 13.0815 56.8726L34.2669 27.5656C34.9505 26.62 39.8177 26.6418 40.3922 27.593C40.9215 28.4695 45.2624 28.5861 46.3806 27.7539L58.3371 18.8556C62.7443 15.5757 79.8534 16.035 81.9418 19.4892L82.7266 20.7873C85.2638 24.9839 107.028 24.9988 109.819 20.8148C112.361 17.0029 114.145 14.5451 114.145 15.1445C114.145 16.7079 119.99 23.1787 122.913 26.2187L136.59 39.1385C138.355 40.8063 144.487 41.7966 150.545 41.3922C154.712 41.114 158.002 40.2228 159.125 39.0683V39.0683C160.556 37.5965 162.507 36.7456 164.56 36.6988L176.493 36.4265C180.314 36.3393 183.815 34.2733 185.739 30.9709V30.9709C186.333 29.9512 188.799 29.0931 192.235 28.7102C198.44 28.0188 205.354 29.0933 206.519 30.9302L221.087 53.9005C224.01 58.9746 229.855 69.7752 229.855 72.3847C229.855 73.3788 231.617 69.3342 234.133 63.0399C235.932 58.5432 259.674 58.5514 261.305 63.0531L262.299 65.7974C263.652 69.5336 282.714 69.8541 285.663 66.1903L297.501 51.4851C298.271 50.5285 303.248 50.6122 303.601 51.5877C303.972 52.6141 309.31 52.6288 309.754 51.6046L330.876 2.83474C331.724 0.876579 341.959 0.929414 342.547 2.89499L345.789 13.7268" stroke="#5F5F5F" stroke-width="2"/>
</svg>
