<svg width="298" height="54" viewBox="0 0 298 54" fill="none" xmlns="http://www.w3.org/2000/svg">
<path d="M296 5.34572L295.191 6.9682C294.31 8.73551 291.585 8.96697 290.341 7.38017L287.97 4.35584C287.534 3.79993 286.563 3.95477 286.373 4.6104C286.188 5.24893 285.254 5.4183 284.801 4.89547L282.993 2.81028C281.813 1.44889 279.383 1.87813 278.883 3.53634L275.226 15.6546C275.113 16.0292 274.496 15.979 274.461 15.5923C274.428 15.2105 273.822 15.1544 273.7 15.5218L267.622 33.8141C266.98 35.7469 263.944 35.8723 263.101 34.0008L261.048 29.4386C260.792 28.8695 259.859 28.9382 259.712 29.537C259.561 30.1534 258.589 30.201 258.363 29.6031L256.471 24.612C255.912 23.1372 253.785 22.7147 252.569 23.8368L248.953 27.1724C248.019 28.0332 246.377 27.5436 246.22 26.3581C246.016 24.8095 243.546 24.6537 243.096 26.161L237.255 45.7318C237.049 46.4217 235.919 46.3507 235.825 45.642C235.725 44.8888 234.496 44.877 234.378 45.6281L233.554 50.8582C233.322 52.3346 230.94 52.3985 230.607 50.9373L225.24 27.3765C225.066 26.6163 223.833 26.6338 223.688 27.3986C223.553 28.1032 222.453 28.1969 222.17 27.5279L219.141 20.3743C218.024 17.7375 213.689 18.1067 213.16 20.8837L212.961 21.9273C212.86 22.4573 212.639 22.9043 212.335 23.2683C209.075 27.1723 204.389 19.1192 199.354 18.4028C197.165 18.0914 194.645 18.4406 192 20.0706L191.191 20.5898C190.31 21.1554 187.585 21.2294 186.341 20.7217L183.97 19.7539C183.534 19.576 182.563 19.6255 182.373 19.8353C182.188 20.0397 181.254 20.0939 180.801 19.9266L178.993 19.2593C177.813 18.8236 175.383 18.961 174.883 19.4916L171.226 23.3695C171.113 23.4894 170.496 23.4733 170.461 23.3495C170.428 23.2274 169.822 23.2094 169.7 23.327L163.622 29.1805C162.98 29.799 159.944 29.8391 159.101 29.2403L157.048 27.7804C156.792 27.5982 155.859 27.6202 155.712 27.8118C155.561 28.0091 154.589 28.0243 154.363 27.833L152.471 26.2359C151.912 25.7639 149.785 25.6287 148.569 25.9878L144.953 27.0552C144.019 27.3306 142.377 27.1739 142.22 26.7946C142.016 26.299 139.546 26.2492 139.096 26.7315L133.255 32.9942C133.049 33.215 131.919 33.1922 131.825 32.9654C131.725 32.7244 130.496 32.7206 130.378 32.961L129.554 34.6346C129.322 35.1071 126.94 35.1275 126.607 34.6599L121.24 27.1205C121.066 26.8772 119.833 26.8828 119.688 27.1275C119.553 27.353 118.453 27.383 118.17 27.1689L115.141 24.8798C114.024 24.036 109.689 24.1541 109.16 25.0428L108.961 25.3767C108.418 26.2877 104.407 26.4327 102.742 25.809C102.253 25.6257 101.988 25.1449 101.772 24.6692L93.7494 6.99652C93.449 6.33484 92.5153 6.31787 92.1911 6.9682V6.9682C91.3101 8.73551 88.5851 8.96697 87.341 7.38017L84.9699 4.35584C84.5341 3.79993 83.5626 3.95477 83.3728 4.6104C83.188 5.24893 82.254 5.4183 81.8008 4.89547L79.9934 2.81028C78.8134 1.44889 76.3834 1.87813 75.8829 3.53634L72.2257 15.6546C72.1126 16.0292 71.4955 15.979 71.4614 15.5923C71.4277 15.2105 70.8218 15.1544 70.6997 15.5218L64.6223 33.8141C63.9802 35.7469 60.9437 35.8723 60.1013 34.0008L58.0479 29.4386C57.7917 28.8695 56.8585 28.9382 56.712 29.537C56.5611 30.1534 55.5893 30.201 55.3627 29.6031L53.4708 24.612C52.9118 23.1372 50.7854 22.7147 49.5689 23.8368L45.9527 27.1724C45.0195 28.0332 43.3765 27.5436 43.2202 26.3581C43.0161 24.8095 40.5463 24.6537 40.0964 26.161L34.2553 45.7318C34.0494 46.4217 32.9191 46.3507 32.8251 45.642C32.7253 44.8888 31.4959 44.877 31.3777 45.6281L30.5543 50.8582C30.3218 52.3346 27.9404 52.3985 27.6075 50.9373L22.2395 27.3765C22.0663 26.6163 20.8331 26.6338 20.6875 27.3986C20.5534 28.1032 19.4535 28.1969 19.1702 27.5279L16.1406 20.3743C15.0239 17.7375 10.6889 18.1067 10.1597 20.8837L9.96085 21.9273C9.31799 25.301 3.80325 25.313 3.09622 21.9494C2.45206 18.8848 2 16.909 2 17.3908" stroke="#FFAB2D" stroke-width="4"/>
</svg>
