<svg width="283" height="44" viewBox="0 0 283 44" fill="none" xmlns="http://www.w3.org/2000/svg">
<path d="M281 12.5937L279.742 13.6163C278.372 14.7303 274.135 14.8761 272.201 13.876L268.514 11.9697C267.836 11.6193 266.325 11.7169 266.03 12.1302C265.743 12.5327 264.291 12.6394 263.586 12.3099L260.776 10.9956C258.941 10.1375 255.162 10.408 254.384 11.4532L248.697 19.0914C248.522 19.3275 247.562 19.2958 247.509 19.0521C247.457 18.8115 246.514 18.7761 246.325 19.0077L236.875 30.5374C235.876 31.7556 231.155 31.8347 229.845 30.6551L226.652 27.7795C226.254 27.4207 224.803 27.4641 224.575 27.8415C224.34 28.23 222.829 28.26 222.477 27.8832L219.535 24.7373C218.666 23.8077 215.359 23.5414 213.468 24.2486L207.845 26.3511C206.394 26.8936 203.839 26.585 203.596 25.8379C203.278 24.8617 199.438 24.7635 198.739 25.7136L189.656 38.0491C189.336 38.484 187.578 38.4393 187.432 37.9925C187.277 37.5178 185.365 37.5103 185.182 37.9837L183.901 41.2803C183.54 42.2109 179.837 42.2512 179.319 41.3302L170.972 26.4797C170.703 26.0006 168.786 26.0116 168.559 26.4937C168.351 26.9377 166.64 26.9968 166.2 26.5752L161.489 22.0662C159.753 20.4042 153.012 20.637 152.189 22.3873V22.3873C151.989 22.8136 151.646 23.166 151.222 23.3722C148.979 24.4635 147.222 25.0662 145.856 25.3132C140.956 26.1993 139.377 18.8249 134.441 19.4827C132.821 19.6987 131.48 20.1896 131.12 20.9549L130.811 21.6127C129.988 23.363 123.247 23.5958 121.511 21.9338L116.8 17.4248C116.36 17.0031 114.649 17.0623 114.441 17.5063C114.214 17.9884 112.297 17.9994 112.028 17.5203L103.681 2.66982C103.163 1.74882 99.4601 1.78911 99.0987 2.71968L97.8184 6.01626C97.6345 6.48965 95.7229 6.48221 95.5677 6.0075C95.4216 5.56075 93.664 5.51599 93.3438 5.95086L84.2613 18.2864C83.5618 19.2365 79.7215 19.1383 79.404 18.1621C79.161 17.415 76.6063 17.1064 75.1553 17.6489L69.5322 19.7514C67.6408 20.4586 64.3343 20.1923 63.4651 19.2627L60.5234 16.1168C60.171 15.74 58.6599 15.77 58.4253 16.1585C58.1974 16.5359 56.7464 16.5793 56.3481 16.2205L53.1551 13.3449C51.8454 12.1653 47.1238 12.2444 46.1253 13.4626L36.6753 24.9923C36.4856 25.2239 35.5433 25.1885 35.491 24.9479C35.438 24.7042 34.4784 24.6725 34.3025 24.9086L28.6158 32.5468C27.8377 33.592 24.0591 33.8625 22.2243 33.0044L19.4139 31.6901C18.7093 31.3606 17.2571 31.4673 16.9696 31.8698C16.6745 32.2831 15.1639 32.3807 14.4862 32.0303L10.7994 30.124C8.86493 29.1238 4.62776 29.2697 3.25775 30.3837L2.00001 31.4063" stroke="#FFAB2D" stroke-width="4"/>
</svg>
