<svg width="283" height="66" viewBox="0 0 283 66" fill="none" xmlns="http://www.w3.org/2000/svg">
<path d="M2 47.5798L3.25774 45.9947C4.62775 44.2681 8.86492 44.042 10.7994 45.5922L14.4862 48.5469C15.1639 49.09 16.6745 48.9387 16.9696 48.2982C17.2571 47.6744 18.7093 47.5089 19.4139 48.0197L22.2243 50.0569C24.0591 51.3869 27.8377 50.9676 28.6158 49.3475L34.3025 37.5084C34.4784 37.1424 35.438 37.1914 35.491 37.5692C35.5433 37.9422 36.4856 37.997 36.6753 37.6381L46.1253 19.7671C47.1238 17.8788 51.8454 17.7562 53.1551 19.5846L56.3481 24.0418C56.7464 24.5978 58.1974 24.5307 58.4253 23.9457C58.6599 23.3435 60.171 23.297 60.5234 23.8811L63.4651 28.7572C64.3343 30.198 67.6407 30.6108 69.5322 29.5146L75.1553 26.2558C76.6063 25.4149 79.161 25.8932 79.404 27.0513C79.7215 28.5643 83.5618 28.7166 84.2613 27.2439L93.3438 8.12384C93.664 7.44979 95.4216 7.51916 95.5677 8.21162C95.7229 8.94743 97.6345 8.95897 97.8184 8.2252L99.0987 3.1155C99.4601 1.67313 103.163 1.61067 103.681 3.03822L112.028 26.0564C112.297 26.7991 114.214 26.782 114.441 26.0348C114.649 25.3465 116.36 25.2549 116.8 25.9085L121.511 32.8974C123.247 35.4735 129.988 35.1127 130.811 32.3997V32.3997C131.012 31.736 131.413 31.1439 131.969 30.7299C135.567 28.052 137.893 27.3576 139.344 27.7627C144.249 29.1324 143.058 37.7533 148.093 36.9852C149.917 36.7068 151.486 35.9181 151.88 34.6199L152.189 33.6003C153.012 30.8873 159.753 30.5265 161.489 33.1026L166.2 40.0915C166.64 40.7451 168.351 40.6535 168.559 39.9652C168.786 39.218 170.703 39.2009 170.972 39.9436L179.319 62.9618C179.837 64.3893 183.54 64.3269 183.901 62.8845L185.182 57.7748C185.365 57.041 187.277 57.0526 187.432 57.7884C187.578 58.4808 189.336 58.5502 189.656 57.8762L198.739 38.7561C199.438 37.2834 203.278 37.4357 203.596 38.9487C203.839 40.1068 206.394 40.5851 207.845 39.7442L213.468 36.4854C215.359 35.3892 218.666 35.802 219.535 37.2428L222.477 42.1189C222.829 42.703 224.34 42.6565 224.575 42.0543C224.803 41.4693 226.254 41.4022 226.652 41.9582L229.845 46.4154C231.155 48.2438 235.876 48.1212 236.875 46.2329L246.325 28.3619C246.514 28.003 247.457 28.0578 247.509 28.4308C247.562 28.8086 248.522 28.8576 248.697 28.4916L254.384 16.6525C255.162 15.0324 258.941 14.6131 260.776 15.9431L263.586 17.9803C264.291 18.4911 265.743 18.3256 266.03 17.7018C266.325 17.0613 267.836 16.91 268.514 17.4531L272.201 20.4078C274.135 21.958 278.372 21.7319 279.742 20.0053L281 18.4202" stroke="#FFAB2D" stroke-width="4"/>
</svg>
